<svg width="100" height="61" viewBox="0 0 100 61" fill="none" xmlns="http://www.w3.org/2000/svg">
<g clip-path="url(#clip0_1029_542)">
<path d="M63.5189 6.51978H36.478V54.4769H63.5189V6.51978Z" fill="#EA5C0C"/>
<path d="M38.1981 30.4984C38.1943 25.8794 39.2555 21.3201 41.3013 17.1657C43.3471 13.0113 46.324 9.3708 50.0063 6.51986C45.4475 2.98366 39.9726 0.784628 34.2073 0.174091C28.4421 -0.436446 22.619 0.566148 17.4038 3.06729C12.1886 5.56843 7.79161 9.4672 4.71538 14.318C1.63915 19.1688 0.0078125 24.7759 0.0078125 30.4984C0.0078125 36.221 1.63915 41.8281 4.71538 46.6789C7.79161 51.5297 12.1886 55.4285 17.4038 57.9296C22.619 60.4307 28.4421 61.4333 34.2073 60.8228C39.9726 60.2123 45.4475 58.0132 50.0063 54.477C46.324 51.6261 43.3471 47.9856 41.3013 43.8312C39.2555 39.6768 38.1943 35.1175 38.1981 30.4984Z" fill="#DF0B16"/>
<path d="M97.051 49.3964V48.4169H97.4532V48.2153H96.4287V48.4169H96.8308V49.3964H97.051ZM99.0329 49.3964V48.2122H98.7138L98.3531 49.0279L97.9893 48.2122H97.6702V49.3964H97.8936V48.5051L98.2127 49.2736H98.4425L98.7808 48.5019V49.3964H99.0329Z" fill="#F59D00"/>
<path d="M100 30.4984C100 36.2212 98.3689 41.8286 95.2926 46.6796C92.2163 51.5307 87.8191 55.4296 82.6037 57.9308C77.3882 60.432 71.5649 61.4345 65.7994 60.8237C60.0339 60.213 54.5588 58.0136 50 54.4769C53.678 51.6224 56.6513 47.9811 58.6958 43.8274C60.7403 39.6737 61.8026 35.1162 61.8026 30.4984C61.8026 25.8805 60.7403 21.323 58.6958 17.1693C56.6513 13.0157 53.678 9.37429 50 6.51979C54.5588 2.98316 60.0339 0.783758 65.7994 0.172988C71.5649 -0.437782 77.3882 0.564724 82.6037 3.06592C87.8191 5.56711 92.2163 9.46606 95.2926 14.3171C98.3689 19.1682 100 24.7756 100 30.4984Z" fill="#F59D00"/>
</g>
<defs>
<clipPath id="clip0_1029_542">
<rect width="100" height="61" fill="white"/>
</clipPath>
</defs>
</svg>
