<svg width="38" height="40" viewBox="0 0 38 40" fill="none" xmlns="http://www.w3.org/2000/svg">
<g filter="url(#filter0_dd_1029_554)">
<path d="M34.75 18C34.75 26.6985 27.6985 33.75 19 33.75C10.3015 33.75 3.25 26.6985 3.25 18C3.25 9.30152 10.3015 2.25 19 2.25C27.6985 2.25 34.75 9.30152 34.75 18Z" fill="white"/>
<path d="M34.75 18C34.75 26.6985 27.6985 33.75 19 33.75C10.3015 33.75 3.25 26.6985 3.25 18C3.25 9.30152 10.3015 2.25 19 2.25C27.6985 2.25 34.75 9.30152 34.75 18Z" fill="url(#paint0_linear_1029_554)"/>
</g>
<path d="M24.8654 22.8167L25.565 18.3714H21.1884V15.4879C21.1884 14.2714 21.7986 13.085 23.7589 13.085H25.75V9.30036C25.75 9.30036 23.9438 9 22.2178 9C18.6117 9 16.2569 11.1296 16.2569 14.9833V18.3714H12.25V22.8167H16.2569V33.5638C17.0613 33.6869 17.8843 33.75 18.7226 33.75C19.561 33.75 20.3839 33.6869 21.1884 33.5638V22.8167H24.8654Z" fill="#000304"/>
<defs>
<filter id="filter0_dd_1029_554" x="0.25" y="2.25" width="37.5" height="37.5" filterUnits="userSpaceOnUse" color-interpolation-filters="sRGB">
<feFlood flood-opacity="0" result="BackgroundImageFix"/>
<feColorMatrix in="SourceAlpha" type="matrix" values="0 0 0 0 0 0 0 0 0 0 0 0 0 0 0 0 0 0 127 0" result="hardAlpha"/>
<feOffset dy="3"/>
<feGaussianBlur stdDeviation="1.5"/>
<feComposite in2="hardAlpha" operator="out"/>
<feColorMatrix type="matrix" values="0 0 0 0 0.245833 0 0 0 0 0.0409722 0 0 0 0 0 0 0 0 1 0"/>
<feBlend mode="normal" in2="BackgroundImageFix" result="effect1_dropShadow_1029_554"/>
<feColorMatrix in="SourceAlpha" type="matrix" values="0 0 0 0 0 0 0 0 0 0 0 0 0 0 0 0 0 0 127 0" result="hardAlpha"/>
<feOffset dy="1"/>
<feGaussianBlur stdDeviation="0.5"/>
<feComposite in2="hardAlpha" operator="out"/>
<feColorMatrix type="matrix" values="0 0 0 0 0.403922 0 0 0 0 0.647059 0 0 0 0 0.584314 0 0 0 1 0"/>
<feBlend mode="normal" in2="effect1_dropShadow_1029_554" result="effect2_dropShadow_1029_554"/>
<feBlend mode="normal" in="SourceGraphic" in2="effect2_dropShadow_1029_554" result="shape"/>
</filter>
<linearGradient id="paint0_linear_1029_554" x1="19" y1="9.76154" x2="19.0003" y2="25.5115" gradientUnits="userSpaceOnUse">
<stop stop-color="#E2DFD2"/>
<stop offset="0.479381" stop-color="#BC9A6F"/>
<stop offset="1" stop-color="#603D27"/>
</linearGradient>
</defs>
</svg>
