<svg width="36" height="38" viewBox="0 0 36 38" fill="none" xmlns="http://www.w3.org/2000/svg">
<g filter="url(#filter0_dd_1029_555)">
<rect x="3.125" y="2.125" width="29.75" height="29.75" rx="6" fill="white"/>
<rect x="3.125" y="2.125" width="29.75" height="29.75" rx="6" fill="url(#paint0_linear_1029_555)"/>
</g>
<g filter="url(#filter1_dd_1029_555)">
<rect x="3.125" y="2.125" width="29.75" height="29.75" rx="6" fill="white"/>
<rect x="3.125" y="2.125" width="29.75" height="29.75" rx="6" fill="url(#paint1_linear_1029_555)"/>
</g>
<g filter="url(#filter2_dd_1029_555)">
<rect x="3.125" y="2.125" width="29.75" height="29.75" rx="6" fill="white"/>
<rect x="3.125" y="2.125" width="29.75" height="29.75" rx="6" fill="url(#paint2_linear_1029_555)"/>
</g>
<path d="M25.4375 11.1562C25.4375 12.0365 24.724 12.75 23.8438 12.75C22.9635 12.75 22.25 12.0365 22.25 11.1562C22.25 10.276 22.9635 9.5625 23.8438 9.5625C24.724 9.5625 25.4375 10.276 25.4375 11.1562Z" fill="#000304"/>
<path fill-rule="evenodd" clip-rule="evenodd" d="M18 22.3125C20.934 22.3125 23.3125 19.934 23.3125 17C23.3125 14.066 20.934 11.6875 18 11.6875C15.066 11.6875 12.6875 14.066 12.6875 17C12.6875 19.934 15.066 22.3125 18 22.3125ZM18 20.1875C19.7604 20.1875 21.1875 18.7604 21.1875 17C21.1875 15.2396 19.7604 13.8125 18 13.8125C16.2396 13.8125 14.8125 15.2396 14.8125 17C14.8125 18.7604 16.2396 20.1875 18 20.1875Z" fill="#000304"/>
<path fill-rule="evenodd" clip-rule="evenodd" d="M7.375 16.575C7.375 13.0047 7.375 11.2195 8.06983 9.85581C8.68103 8.65628 9.65628 7.68103 10.8558 7.06983C12.2195 6.375 14.0047 6.375 17.575 6.375H18.425C21.9953 6.375 23.7805 6.375 25.1442 7.06983C26.3437 7.68103 27.319 8.65628 27.9302 9.85581C28.625 11.2195 28.625 13.0047 28.625 16.575V17.425C28.625 20.9953 28.625 22.7805 27.9302 24.1442C27.319 25.3437 26.3437 26.319 25.1442 26.9302C23.7805 27.625 21.9953 27.625 18.425 27.625H17.575C14.0047 27.625 12.2195 27.625 10.8558 26.9302C9.65628 26.319 8.68103 25.3437 8.06983 24.1442C7.375 22.7805 7.375 20.9953 7.375 17.425V16.575ZM17.575 8.5H18.425C20.2452 8.5 21.4826 8.50165 22.439 8.5798C23.3707 8.65591 23.8471 8.79388 24.1795 8.96322C24.9791 9.37068 25.6293 10.0209 26.0368 10.8205C26.2061 11.1529 26.3441 11.6293 26.4202 12.561C26.4983 13.5174 26.5 14.7548 26.5 16.575V17.425C26.5 19.2452 26.4983 20.4826 26.4202 21.439C26.3441 22.3707 26.2061 22.8471 26.0368 23.1795C25.6293 23.9791 24.9791 24.6293 24.1795 25.0368C23.8471 25.2061 23.3707 25.3441 22.439 25.4202C21.4826 25.4983 20.2452 25.5 18.425 25.5H17.575C15.7548 25.5 14.5174 25.4983 13.561 25.4202C12.6293 25.3441 12.1529 25.2061 11.8205 25.0368C11.0209 24.6293 10.3707 23.9791 9.96322 23.1795C9.79388 22.8471 9.65591 22.3707 9.5798 21.439C9.50165 20.4826 9.5 19.2452 9.5 17.425V16.575C9.5 14.7548 9.50165 13.5174 9.5798 12.561C9.65591 11.6293 9.79388 11.1529 9.96322 10.8205C10.3707 10.0209 11.0209 9.37068 11.8205 8.96322C12.1529 8.79388 12.6293 8.65591 13.561 8.5798C14.5174 8.50165 15.7548 8.5 17.575 8.5Z" fill="#000304"/>
<defs>
<filter id="filter0_dd_1029_555" x="0.125" y="2.125" width="35.75" height="35.75" filterUnits="userSpaceOnUse" color-interpolation-filters="sRGB">
<feFlood flood-opacity="0" result="BackgroundImageFix"/>
<feColorMatrix in="SourceAlpha" type="matrix" values="0 0 0 0 0 0 0 0 0 0 0 0 0 0 0 0 0 0 127 0" result="hardAlpha"/>
<feOffset dy="3"/>
<feGaussianBlur stdDeviation="1.5"/>
<feComposite in2="hardAlpha" operator="out"/>
<feColorMatrix type="matrix" values="0 0 0 0 0.245833 0 0 0 0 0.0409722 0 0 0 0 0 0 0 0 1 0"/>
<feBlend mode="normal" in2="BackgroundImageFix" result="effect1_dropShadow_1029_555"/>
<feColorMatrix in="SourceAlpha" type="matrix" values="0 0 0 0 0 0 0 0 0 0 0 0 0 0 0 0 0 0 127 0" result="hardAlpha"/>
<feOffset dy="1"/>
<feGaussianBlur stdDeviation="0.5"/>
<feComposite in2="hardAlpha" operator="out"/>
<feColorMatrix type="matrix" values="0 0 0 0 0.403922 0 0 0 0 0.647059 0 0 0 0 0.584314 0 0 0 1 0"/>
<feBlend mode="normal" in2="effect1_dropShadow_1029_555" result="effect2_dropShadow_1029_555"/>
<feBlend mode="normal" in="SourceGraphic" in2="effect2_dropShadow_1029_555" result="shape"/>
</filter>
<filter id="filter1_dd_1029_555" x="0.125" y="2.125" width="35.75" height="35.75" filterUnits="userSpaceOnUse" color-interpolation-filters="sRGB">
<feFlood flood-opacity="0" result="BackgroundImageFix"/>
<feColorMatrix in="SourceAlpha" type="matrix" values="0 0 0 0 0 0 0 0 0 0 0 0 0 0 0 0 0 0 127 0" result="hardAlpha"/>
<feOffset dy="3"/>
<feGaussianBlur stdDeviation="1.5"/>
<feComposite in2="hardAlpha" operator="out"/>
<feColorMatrix type="matrix" values="0 0 0 0 0.245833 0 0 0 0 0.0409722 0 0 0 0 0 0 0 0 1 0"/>
<feBlend mode="normal" in2="BackgroundImageFix" result="effect1_dropShadow_1029_555"/>
<feColorMatrix in="SourceAlpha" type="matrix" values="0 0 0 0 0 0 0 0 0 0 0 0 0 0 0 0 0 0 127 0" result="hardAlpha"/>
<feOffset dy="1"/>
<feGaussianBlur stdDeviation="0.5"/>
<feComposite in2="hardAlpha" operator="out"/>
<feColorMatrix type="matrix" values="0 0 0 0 0.403922 0 0 0 0 0.647059 0 0 0 0 0.584314 0 0 0 1 0"/>
<feBlend mode="normal" in2="effect1_dropShadow_1029_555" result="effect2_dropShadow_1029_555"/>
<feBlend mode="normal" in="SourceGraphic" in2="effect2_dropShadow_1029_555" result="shape"/>
</filter>
<filter id="filter2_dd_1029_555" x="0.125" y="2.125" width="35.75" height="35.75" filterUnits="userSpaceOnUse" color-interpolation-filters="sRGB">
<feFlood flood-opacity="0" result="BackgroundImageFix"/>
<feColorMatrix in="SourceAlpha" type="matrix" values="0 0 0 0 0 0 0 0 0 0 0 0 0 0 0 0 0 0 127 0" result="hardAlpha"/>
<feOffset dy="3"/>
<feGaussianBlur stdDeviation="1.5"/>
<feComposite in2="hardAlpha" operator="out"/>
<feColorMatrix type="matrix" values="0 0 0 0 0.245833 0 0 0 0 0.0409722 0 0 0 0 0 0 0 0 1 0"/>
<feBlend mode="normal" in2="BackgroundImageFix" result="effect1_dropShadow_1029_555"/>
<feColorMatrix in="SourceAlpha" type="matrix" values="0 0 0 0 0 0 0 0 0 0 0 0 0 0 0 0 0 0 127 0" result="hardAlpha"/>
<feOffset dy="1"/>
<feGaussianBlur stdDeviation="0.5"/>
<feComposite in2="hardAlpha" operator="out"/>
<feColorMatrix type="matrix" values="0 0 0 0 0.403922 0 0 0 0 0.647059 0 0 0 0 0.584314 0 0 0 1 0"/>
<feBlend mode="normal" in2="effect1_dropShadow_1029_555" result="effect2_dropShadow_1029_555"/>
<feBlend mode="normal" in="SourceGraphic" in2="effect2_dropShadow_1029_555" result="shape"/>
</filter>
<linearGradient id="paint0_linear_1029_555" x1="18" y1="9.21923" x2="18.0003" y2="24.0942" gradientUnits="userSpaceOnUse">
<stop stop-color="#E2DFD2"/>
<stop offset="0.479381" stop-color="#BC9A6F"/>
<stop offset="1" stop-color="#603D27"/>
</linearGradient>
<linearGradient id="paint1_linear_1029_555" x1="18" y1="9.21923" x2="18.0003" y2="24.0942" gradientUnits="userSpaceOnUse">
<stop stop-color="#E2DFD2"/>
<stop offset="0.479381" stop-color="#BC9A6F"/>
<stop offset="1" stop-color="#603D27"/>
</linearGradient>
<linearGradient id="paint2_linear_1029_555" x1="18" y1="9.21923" x2="18.0003" y2="24.0942" gradientUnits="userSpaceOnUse">
<stop stop-color="#E2DFD2"/>
<stop offset="0.479381" stop-color="#BC9A6F"/>
<stop offset="1" stop-color="#603D27"/>
</linearGradient>
</defs>
</svg>
