<svg width="36" height="34" viewBox="0 0 36 34" fill="none" xmlns="http://www.w3.org/2000/svg">
<g filter="url(#filter0_dd_1029_557)">
<path d="M3.38479 10.5624C3.52135 8.45998 5.21169 6.81229 7.31599 6.70804C10.3632 6.55707 14.7184 6.375 18 6.375C21.2816 6.375 25.6368 6.55707 28.684 6.70804C30.7883 6.81229 32.4786 8.45998 32.6152 10.5624C32.746 12.5767 32.875 15.0553 32.875 17C32.875 18.9447 32.746 21.4233 32.6152 23.4376C32.4786 25.54 30.7883 27.1877 28.684 27.292C25.6368 27.4429 21.2816 27.625 18 27.625C14.7184 27.625 10.3632 27.4429 7.316 27.292C5.2117 27.1877 3.52135 25.54 3.38479 23.4376C3.25395 21.4233 3.125 18.9447 3.125 17C3.125 15.0553 3.25395 12.5767 3.38479 10.5624Z" fill="white"/>
<path d="M3.38479 10.5624C3.52135 8.45998 5.21169 6.81229 7.31599 6.70804C10.3632 6.55707 14.7184 6.375 18 6.375C21.2816 6.375 25.6368 6.55707 28.684 6.70804C30.7883 6.81229 32.4786 8.45998 32.6152 10.5624C32.746 12.5767 32.875 15.0553 32.875 17C32.875 18.9447 32.746 21.4233 32.6152 23.4376C32.4786 25.54 30.7883 27.1877 28.684 27.292C25.6368 27.4429 21.2816 27.625 18 27.625C14.7184 27.625 10.3632 27.4429 7.316 27.292C5.2117 27.1877 3.52135 25.54 3.38479 23.4376C3.25395 21.4233 3.125 18.9447 3.125 17C3.125 15.0553 3.25395 12.5767 3.38479 10.5624Z" fill="url(#paint0_linear_1029_557)"/>
</g>
<path d="M14.8125 12.75V21.25L23.3125 17L14.8125 12.75Z" fill="#000304"/>
<defs>
<filter id="filter0_dd_1029_557" x="0.125" y="6.375" width="35.75" height="27.25" filterUnits="userSpaceOnUse" color-interpolation-filters="sRGB">
<feFlood flood-opacity="0" result="BackgroundImageFix"/>
<feColorMatrix in="SourceAlpha" type="matrix" values="0 0 0 0 0 0 0 0 0 0 0 0 0 0 0 0 0 0 127 0" result="hardAlpha"/>
<feOffset dy="3"/>
<feGaussianBlur stdDeviation="1.5"/>
<feComposite in2="hardAlpha" operator="out"/>
<feColorMatrix type="matrix" values="0 0 0 0 0.245833 0 0 0 0 0.0409722 0 0 0 0 0 0 0 0 1 0"/>
<feBlend mode="normal" in2="BackgroundImageFix" result="effect1_dropShadow_1029_557"/>
<feColorMatrix in="SourceAlpha" type="matrix" values="0 0 0 0 0 0 0 0 0 0 0 0 0 0 0 0 0 0 127 0" result="hardAlpha"/>
<feOffset dy="1"/>
<feGaussianBlur stdDeviation="0.5"/>
<feComposite in2="hardAlpha" operator="out"/>
<feColorMatrix type="matrix" values="0 0 0 0 0.403922 0 0 0 0 0.647059 0 0 0 0 0.584314 0 0 0 1 0"/>
<feBlend mode="normal" in2="effect1_dropShadow_1029_557" result="effect2_dropShadow_1029_557"/>
<feBlend mode="normal" in="SourceGraphic" in2="effect2_dropShadow_1029_557" result="shape"/>
</filter>
<linearGradient id="paint0_linear_1029_557" x1="18" y1="11.4423" x2="18.0001" y2="22.0673" gradientUnits="userSpaceOnUse">
<stop stop-color="#E2DFD2"/>
<stop offset="0.479381" stop-color="#BC9A6F"/>
<stop offset="1" stop-color="#603D27"/>
</linearGradient>
</defs>
</svg>
