<svg width="220" height="44" viewBox="0 0 220 44" fill="none" xmlns="http://www.w3.org/2000/svg">
<rect y="0.444458" width="220" height="43.4568" fill="#EC1E2C"/>
<g clip-path="url(#clip0_1025_1862)">
<path d="M143.762 13.2473H148.875V26.7377H153.878V25.7434C153.878 21.8481 153.892 17.9512 153.865 14.0558C153.865 13.4058 154.023 13.1592 154.698 13.1881C155.878 13.2377 157.064 13.2345 158.244 13.1881C158.874 13.164 159.045 13.3834 159.04 14.0062C159.016 17.9287 159.029 21.8513 159.029 25.7738V26.7152H164.007V13.2505H169.159V31.6128H143.766L143.762 13.2473Z" fill="white"/>
<path d="M54.9419 13.2777C55.0119 13.2465 55.0856 13.225 55.1612 13.2137C58.7887 13.2265 62.4084 13.1833 66.0297 13.2809C68.2046 13.3402 69.7519 14.5874 70.3149 16.4302C70.9632 18.5483 70.3954 20.3591 68.58 21.8625C68.6798 21.967 68.7851 22.0658 68.8955 22.1587C70.7881 23.5484 71.501 25.444 70.9316 27.7623C70.3938 29.9445 68.8718 31.0781 66.7867 31.5088C66.1945 31.6214 65.5928 31.675 64.9903 31.6689C61.6577 31.6833 58.325 31.6689 54.9277 31.6689L54.9419 13.2777ZM59.6357 24.1648C59.6357 25.2647 59.6183 26.2461 59.6546 27.2228C59.6841 27.3212 59.738 27.4104 59.8112 27.4816C59.8844 27.5528 59.9744 27.6037 60.0726 27.6294C61.5094 27.639 62.9525 27.6727 64.3846 27.559C65.4887 27.4709 65.9619 26.8369 65.9461 25.8459C65.9303 24.9093 65.3467 24.2352 64.2932 24.184C62.7806 24.1168 61.2665 24.1712 59.6357 24.1712V24.1648ZM59.6357 17.2803C59.6357 18.3114 59.6168 19.2368 59.6546 20.1622C59.6546 20.3223 59.9085 20.5881 60.0489 20.5913C61.3312 20.6153 62.6182 20.6553 63.8941 20.564C64.9603 20.4872 65.4713 19.8708 65.4713 18.9486C65.4713 17.988 64.9193 17.3604 63.8279 17.2995C62.4794 17.2291 61.1183 17.2851 59.6341 17.2851L59.6357 17.2803Z" fill="white"/>
<path d="M119.658 31.6272H114.544V18.1209H108.046V31.616H102.841V18.0888H100.219C100.219 16.5358 100.208 15.0469 100.241 13.5739C100.241 13.4474 100.542 13.2361 100.714 13.2217C101.288 13.1752 101.868 13.2025 102.449 13.2025C107.44 13.2025 112.435 13.2025 117.432 13.2025C118.694 13.2025 119.279 13.5371 119.58 14.4209C119.655 14.6469 119.693 14.8837 119.694 15.1221C119.7 20.4589 119.7 25.7957 119.694 31.1325C119.691 31.2862 119.67 31.4415 119.658 31.6272Z" fill="white"/>
<path d="M19.1597 25.0005V31.6096H13.9864V18.0664H11.4077V13.2009H14.2025C15.0968 13.2009 15.9895 13.1913 16.8838 13.2009C18.4105 13.2233 19.1344 13.9678 19.1455 15.5336C19.1565 16.9745 19.1455 18.4042 19.1455 19.8964H25.6972V13.2537H30.8263V31.6064H25.7161V25.0005H19.1597Z" fill="white"/>
<path d="M33.3672 22.4341C33.3672 16.9009 37.3465 12.9367 42.8809 12.9463C48.4784 12.9559 52.3441 16.9185 52.3346 22.6454C52.3346 27.9817 48.2339 31.9667 42.7878 31.9506C37.3417 31.9346 33.3625 27.9128 33.3672 22.4341ZM38.572 22.4501C38.572 24.9813 40.3416 26.7809 42.8304 26.7905C45.3192 26.8001 47.1662 24.9573 47.1662 22.4181C47.1662 19.9316 45.3271 18.0632 42.8872 18.0568C40.3842 18.0504 38.5704 19.906 38.5751 22.4501H38.572Z" fill="white"/>
<path d="M141.189 22.4165C141.216 27.892 137.246 31.9282 131.797 31.9506C126.394 31.9715 122.351 28.0281 122.217 22.8247C122.069 16.9969 126.283 12.9191 131.666 12.9399C137.224 12.9607 141.167 16.8544 141.189 22.4165ZM135.985 22.4661C135.997 19.9476 134.218 18.0824 131.778 18.0568C129.281 18.0312 127.422 19.8804 127.414 22.402C127.406 24.9637 129.196 26.7921 131.715 26.7905C134.209 26.7873 135.975 24.9989 135.986 22.4661H135.985Z" fill="white"/>
<path d="M92.6762 31.6512H87.115C86.7995 30.7354 86.4336 29.8036 86.145 28.851C86.0125 28.4091 85.8075 28.273 85.3674 28.2779C83.2918 28.2981 81.2168 28.2981 79.1422 28.2779C78.729 28.2779 78.5397 28.4203 78.4198 28.8142C78.1738 29.6259 77.8994 30.4312 77.5887 31.2158C77.5145 31.4047 77.2527 31.6416 77.0729 31.6448C75.3963 31.6785 73.7182 31.6641 71.9438 31.6641C72.6394 29.8661 73.3034 28.1418 73.9737 26.4142C75.5967 22.2371 77.2338 18.0664 78.8299 13.8797C79.0397 13.3321 79.3031 13.1752 79.8551 13.1849C81.5616 13.2169 83.2698 13.2089 84.9763 13.1849C85.4069 13.1849 85.6277 13.3241 85.7885 13.7404C88.0219 19.5351 90.2647 25.3223 92.5169 31.1021C92.5894 31.2702 92.6178 31.4495 92.6762 31.6512ZM84.5473 24.1264C83.8328 22.045 83.142 20.0245 82.4496 18.0056H82.1105C81.4228 20.0229 80.7336 22.0402 80.0239 24.1216L84.5473 24.1264Z" fill="white"/>
<path d="M208.591 31.6705C206.833 31.6705 205.15 31.6849 203.47 31.6496C203.344 31.6282 203.225 31.5773 203.122 31.5008C203.019 31.4244 202.935 31.3246 202.877 31.2094C202.562 30.4233 202.302 29.6083 202.054 28.8078C201.934 28.4091 201.724 28.2811 201.317 28.2843C199.24 28.3035 197.163 28.3099 195.087 28.2843C194.624 28.2843 194.442 28.4652 194.316 28.8702C194.081 29.6307 193.788 30.372 193.562 31.1357C193.447 31.5264 193.283 31.6977 192.856 31.6913C191.226 31.6673 189.597 31.6817 187.856 31.6817L189.745 26.8241C191.417 22.5189 193.1 18.2169 194.745 13.9021C194.952 13.3578 195.218 13.1817 195.772 13.1929C197.48 13.2265 199.19 13.1849 200.896 13.2265C201.158 13.2265 201.56 13.4586 201.649 13.6844C203.951 19.5378 206.232 25.3992 208.492 31.2686C208.532 31.4006 208.565 31.5348 208.591 31.6705ZM195.945 24.1248H200.455C199.778 22.1363 199.128 20.2134 198.452 18.3018C198.431 18.2457 197.978 18.2377 197.945 18.3178C197.78 18.6766 197.641 19.0475 197.531 19.4273C197.001 20.9723 196.486 22.5205 195.945 24.1248Z" fill="white"/>
<path d="M177.952 18.0568H171.787V13.2697H189.368V18.0408H183.156V31.6048H177.951L177.952 18.0568Z" fill="white"/>
</g>
<defs>
<clipPath id="clip0_1025_1862">
<rect width="197.185" height="19.0123" fill="white" transform="translate(11.4077 12.9383)"/>
</clipPath>
</defs>
</svg>
