<svg width="405" height="80" viewBox="0 0 405 80" fill="none" xmlns="http://www.w3.org/2000/svg">
<rect width="405" height="80" fill="#EC1E2C"/>
<g clip-path="url(#clip0_1025_164)">
<path d="M264.652 23.5688H274.065V48.4034H283.275V46.5731C283.275 39.4021 283.301 32.2282 283.252 25.0573C283.252 23.8606 283.542 23.4067 284.785 23.4598C286.957 23.5512 289.14 23.5453 291.312 23.4598C292.473 23.4156 292.787 23.8194 292.778 24.9659C292.735 32.1869 292.758 39.408 292.758 46.6291V48.3621H301.921V23.5747H311.407V57.3781H264.661L264.652 23.5688Z" fill="white"/>
<path d="M101.142 23.6249C101.271 23.5674 101.407 23.5278 101.546 23.507C108.224 23.5305 114.887 23.451 121.554 23.6307C125.558 23.7398 128.406 26.0358 129.442 29.4282C130.636 33.3276 129.59 36.6611 126.249 39.4286C126.432 39.621 126.626 39.803 126.829 39.9739C130.313 42.5322 131.626 46.0219 130.578 50.2897C129.588 54.3069 126.786 56.3937 122.947 57.1865C121.857 57.3939 120.749 57.4926 119.64 57.4813C113.505 57.5078 107.37 57.4813 101.116 57.4813L101.142 23.6249ZM109.783 43.667C109.783 45.6918 109.751 47.4985 109.818 49.2964C109.872 49.4777 109.971 49.6417 110.106 49.7728C110.241 49.9039 110.406 49.9977 110.587 50.0451C113.232 50.0627 115.889 50.1246 118.525 49.9154C120.558 49.7533 121.429 48.5861 121.4 46.7617C121.371 45.0375 120.296 43.7966 118.357 43.7023C115.572 43.5785 112.785 43.6787 109.783 43.6787V43.667ZM109.783 30.9933C109.783 32.8914 109.748 34.595 109.818 36.2985C109.818 36.5933 110.285 37.0825 110.544 37.0884C112.904 37.1326 115.273 37.2063 117.622 37.0383C119.585 36.8968 120.526 35.7621 120.526 34.0644C120.526 32.296 119.51 31.1406 117.5 31.0286C115.018 30.899 112.512 31.0021 109.78 31.0021L109.783 30.9933Z" fill="white"/>
<path d="M220.278 57.4046H210.865V32.5406H198.903V57.384H189.321V32.4817H184.493C184.493 29.6227 184.472 26.8817 184.533 24.1701C184.533 23.9373 185.088 23.5482 185.404 23.5217C186.461 23.4362 187.53 23.4863 188.598 23.4863C197.787 23.4863 206.981 23.4863 216.181 23.4863C218.504 23.4863 219.581 24.1023 220.136 25.7293C220.273 26.1453 220.344 26.5813 220.345 27.0202C220.356 36.8448 220.356 46.6693 220.345 56.4939C220.339 56.7768 220.301 57.0627 220.278 57.4046Z" fill="white"/>
<path d="M35.2706 45.2055V57.3722H25.7472V32.4404H21V23.4834H26.145C27.7913 23.4834 29.4346 23.4657 31.0809 23.4834C33.8915 23.5246 35.2242 24.8951 35.2445 27.7777C35.2648 30.4303 35.2445 33.0623 35.2445 35.8093H47.3056V23.5806H56.7478V57.3663H47.3405V45.2055H35.2706Z" fill="white"/>
<path d="M61.4253 40.4808C61.4253 30.2947 68.7508 22.9971 78.9391 23.0147C89.2436 23.0324 96.3601 30.3272 96.3427 40.8699C96.3427 50.6935 88.7936 58.0295 78.7678 58C68.7421 57.9705 61.4166 50.5667 61.4253 40.4808ZM71.0068 40.5103C71.0068 45.1701 74.2645 48.483 78.8462 48.5006C83.4279 48.5183 86.8279 45.1259 86.8279 40.4514C86.8279 35.8741 83.4425 32.4345 78.9508 32.4227C74.3429 32.4109 71.0039 35.8269 71.0126 40.5103H71.0068Z" fill="white"/>
<path d="M259.916 40.4484C259.966 50.5284 252.658 57.9587 242.626 58C232.679 58.0383 225.237 50.7789 224.99 41.2C224.717 30.4716 232.476 22.9646 242.385 23.003C252.617 23.0413 259.876 30.2093 259.916 40.4484ZM250.335 40.5398C250.358 35.9036 247.083 32.4699 242.591 32.4227C237.995 32.3756 234.572 35.7798 234.557 40.4219C234.543 45.1377 237.838 48.5036 242.475 48.5006C247.066 48.4947 250.318 45.2025 250.338 40.5398H250.335Z" fill="white"/>
<path d="M170.608 57.4488H160.37C159.79 55.7629 159.116 54.0476 158.585 52.2939C158.341 51.4804 157.963 51.2299 157.153 51.2387C153.332 51.2761 149.512 51.2761 145.693 51.2387C144.932 51.2387 144.584 51.501 144.363 52.2261C143.91 53.7204 143.405 55.2029 142.833 56.6471C142.697 56.9949 142.215 57.4311 141.884 57.437C138.797 57.4989 135.708 57.4724 132.442 57.4724C133.722 54.1625 134.944 50.9882 136.178 47.808C139.166 40.1183 142.18 32.4404 145.118 24.733C145.504 23.725 145.989 23.4362 147.006 23.4539C150.147 23.5128 153.292 23.4981 156.433 23.4539C157.226 23.4539 157.632 23.7103 157.928 24.4766C162.04 35.1441 166.169 45.7979 170.315 56.4379C170.448 56.7474 170.501 57.0775 170.608 57.4488ZM155.643 43.5962C154.328 39.7646 153.056 36.045 151.782 32.3284H151.158C149.892 36.0421 148.623 39.7558 147.316 43.5874L155.643 43.5962Z" fill="white"/>
<path d="M383.997 57.4842C380.76 57.4842 377.662 57.5107 374.569 57.4459C374.338 57.4065 374.119 57.3127 373.929 57.1719C373.739 57.0312 373.585 56.8475 373.478 56.6354C372.897 55.1882 372.418 53.688 371.962 52.2143C371.741 51.4804 371.355 51.2446 370.606 51.2505C366.782 51.2859 362.958 51.2977 359.137 51.2505C358.284 51.2505 357.95 51.5836 357.718 52.3293C357.285 53.7293 356.745 55.0939 356.33 56.4998C356.118 57.2189 355.816 57.5343 355.029 57.5225C352.03 57.4783 349.03 57.5048 345.825 57.5048L349.303 48.5625C352.381 40.6371 355.479 32.7175 358.507 24.7743C358.888 23.7722 359.378 23.448 360.398 23.4686C363.542 23.5305 366.689 23.4539 369.831 23.5305C370.313 23.5305 371.053 23.9579 371.216 24.3735C375.455 35.149 379.654 45.9394 383.814 56.7444C383.888 56.9875 383.949 57.2344 383.997 57.4842ZM360.717 43.5933H369.018C367.772 39.9326 366.576 36.3928 365.331 32.8737C365.293 32.7705 364.46 32.7558 364.399 32.9032C364.094 33.5638 363.839 34.2465 363.635 34.9457C362.659 37.7899 361.713 40.64 360.717 43.5933Z" fill="white"/>
<path d="M327.594 32.4227H316.244V23.6101H348.609V32.3933H337.172V57.3634H327.591L327.594 32.4227Z" fill="white"/>
</g>
<defs>
<clipPath id="clip0_1025_164">
<rect width="363" height="35" fill="white" transform="translate(21 23)"/>
</clipPath>
</defs>
</svg>
